<svg width="20" height="21" viewBox="0 0 20 21" fill="none" xmlns="http://www.w3.org/2000/svg">
<path d="M18.3333 6.54167H13.3333C12.9916 6.54167 12.7083 6.25834 12.7083 5.91667C12.7083 5.57501 12.9916 5.29167 13.3333 5.29167H18.3333C18.675 5.29167 18.9583 5.57501 18.9583 5.91667C18.9583 6.25834 18.675 6.54167 18.3333 6.54167Z" fill="#949D9E"/>
<path d="M5.00002 6.54167H1.66669C1.32502 6.54167 1.04169 6.25834 1.04169 5.91667C1.04169 5.57501 1.32502 5.29167 1.66669 5.29167H5.00002C5.34169 5.29167 5.62502 5.57501 5.62502 5.91667C5.62502 6.25834 5.34169 6.54167 5.00002 6.54167Z" fill="#949D9E"/>
<path d="M8.33335 9.45833C6.38335 9.45833 4.79169 7.86667 4.79169 5.91667C4.79169 3.96667 6.38335 2.375 8.33335 2.375C10.2834 2.375 11.875 3.96667 11.875 5.91667C11.875 7.86667 10.2834 9.45833 8.33335 9.45833ZM8.33335 3.625C7.06669 3.625 6.04169 4.65 6.04169 5.91667C6.04169 7.18333 7.06669 8.20833 8.33335 8.20833C9.60002 8.20833 10.625 7.18333 10.625 5.91667C10.625 4.65 9.60002 3.625 8.33335 3.625Z" fill="#949D9E"/>
<path d="M18.3333 15.7083H15C14.6583 15.7083 14.375 15.425 14.375 15.0833C14.375 14.7417 14.6583 14.4583 15 14.4583H18.3333C18.675 14.4583 18.9583 14.7417 18.9583 15.0833C18.9583 15.425 18.675 15.7083 18.3333 15.7083Z" fill="#949D9E"/>
<path d="M6.66669 15.7083H1.66669C1.32502 15.7083 1.04169 15.425 1.04169 15.0833C1.04169 14.7417 1.32502 14.4583 1.66669 14.4583H6.66669C7.00835 14.4583 7.29169 14.7417 7.29169 15.0833C7.29169 15.425 7.00835 15.7083 6.66669 15.7083Z" fill="#949D9E"/>
<path d="M11.6667 18.625C9.71667 18.625 8.125 17.0333 8.125 15.0833C8.125 13.1333 9.71667 11.5417 11.6667 11.5417C13.6167 11.5417 15.2083 13.1333 15.2083 15.0833C15.2083 17.0333 13.6167 18.625 11.6667 18.625ZM11.6667 12.7917C10.4 12.7917 9.375 13.8167 9.375 15.0833C9.375 16.35 10.4 17.375 11.6667 17.375C12.9333 17.375 13.9583 16.35 13.9583 15.0833C13.9583 13.8167 12.9333 12.7917 11.6667 12.7917Z" fill="#949D9E"/>
</svg>
