<?xml version="1.0" encoding="UTF-8"?>
<svg version="1.1" xmlns="http://www.w3.org/2000/svg" width="438" height="438">
<path d="M0 0 C3.4372166 -0.11604679 6.87393086 -0.18719508 10.3125 -0.25 C11.28896484 -0.28351563 12.26542969 -0.31703125 13.27148438 -0.3515625 C14.20927734 -0.36445313 15.14707031 -0.37734375 16.11328125 -0.390625 C16.97735596 -0.41157227 17.84143066 -0.43251953 18.73168945 -0.45410156 C21 0 21 0 24 4 C25.32 7.63 26.64 11.26 28 15 C46.81 15.33 65.62 15.66 85 16 C85 18.64 85 21.28 85 24 C89.95 24 94.9 24 100 24 C100 21.36 100 18.72 100 16 C102.31 16 104.62 16 107 16 C107 19.63 107 23.26 107 27 C109.97 27 112.94 27 116 27 C113.66875514 34.26151272 111.01269723 41.37335968 108.23876953 48.47705078 C107.49434736 50.38952201 106.76091463 52.306001 106.02734375 54.22265625 C105.31771484 56.04216797 105.31771484 56.04216797 104.59375 57.8984375 C104.16771484 58.99849121 103.74167969 60.09854492 103.30273438 61.23193359 C102.03663519 63.92215709 101.32431655 65.2205795 99 67 C96.51325989 67.36076355 96.51325989 67.36076355 93.51879883 67.34057617 C91.83739555 67.34023628 91.83739555 67.34023628 90.12202454 67.33988953 C88.91257675 67.32440567 87.70312897 67.30892181 86.45703125 67.29296875 C85.21829758 67.28872391 83.9795639 67.28447906 82.70329285 67.28010559 C79.41350999 67.26614733 76.12416797 67.23920213 72.83453369 67.20599365 C69.47633254 67.17527933 66.11806682 67.16159739 62.75976562 67.14648438 C56.17300426 67.11337359 49.5865382 67.06314257 43 67 C42.67 68.65 42.34 70.3 42 72 C42.68460297 72.00808685 43.36920593 72.01617371 44.07455444 72.02450562 C51.17945406 72.11035007 58.28406817 72.20984415 65.38867188 72.31738281 C68.04259458 72.35574181 70.69657051 72.39058226 73.35058594 72.421875 C77.1583971 72.46737536 80.96583958 72.52539449 84.7734375 72.5859375 C85.96617279 72.59748871 87.15890808 72.60903992 88.38778687 72.62094116 C89.48877716 72.64081085 90.58976746 72.66068054 91.72412109 72.68115234 C92.69674896 72.69447601 93.66937683 72.70779968 94.67147827 72.7215271 C97 73 97 73 99 75 C99.3125 78 99.3125 78 99 81 C96 83 96 83 93 83 C93.33 83.680625 93.66 84.36125 94 85.0625 C95.39865313 89.17104358 95.82039324 92.73459593 94.3125 96.8984375 C92.68020268 100.12222471 91.23947181 101.83128123 88.25 103.9375 C82.79045546 105.7223511 78.31372402 105.95974165 73.1875 103.375 C69.62341567 100.71940776 68.37384216 99.20234072 67 95 C66.443932 90.35414158 66.86291982 87.27416037 69 83 C64.71 83 60.42 83 56 83 C56.66 84.65 57.32 86.3 58 88 C58.55480196 92.99321767 57.93568744 96.33011878 55.25390625 100.48828125 C52.65299348 103.62396113 49.79264602 104.7425284 45.82421875 105.3125 C41.75949625 105.53110692 39.34421644 105.16573384 35.625 103.375 C32.21925129 100.29360831 30.31883412 97.62152498 29.75390625 92.9765625 C29.63396761 89.18085726 29.87115697 86.19326455 32 83 C31.01 82.01 31.01 82.01 30 81 C29.26290094 75.22605739 30.91491133 71.3255965 33.41796875 66.13671875 C34.31843802 61.28385415 32.65621944 57.56483293 31 53 C30.60659424 51.89970459 30.21318848 50.79940918 29.80786133 49.66577148 C28.49877072 46.06000457 27.16026542 42.46647762 25.8125 38.875 C25.3441091 37.61990058 24.87600824 36.36469288 24.40820312 35.109375 C23.27497048 32.07184421 22.13884527 29.03542994 21 26 C19.865625 25.855625 18.73125 25.71125 17.5625 25.5625 C14 25 14 25 13 24 C12.95919217 22.00041636 12.95745644 19.99954746 13 18 C14.32 17.34 15.64 16.68 17 16 C16.34 14.02 15.68 12.04 15 10 C14.02417969 9.98582031 13.04835937 9.97164062 12.04296875 9.95703125 C10.77066406 9.90933594 9.49835938 9.86164063 8.1875 9.8125 C6.92292969 9.77769531 5.65835938 9.74289063 4.35546875 9.70703125 C1 9 1 9 -1.07421875 6.69921875 C-2 4 -2 4 -1.05786133 1.83129883 C-0.70876709 1.22697021 -0.35967285 0.6226416 0 0 Z M67 21 C67 24.96 67 28.92 67 33 C70.63 33 74.26 33 78 33 C78 29.04 78 25.08 78 21 C74.37 21 70.74 21 67 21 Z M40 88 C39.95919217 89.99958364 39.95745644 92.00045254 40 94 C42.32854463 95.19838209 42.32854463 95.19838209 45 96 C45.99 95.34 46.98 94.68 48 94 C48.41666667 91.5 48.41666667 91.5 48 89 C46.16734675 86.73160017 46.16734675 86.73160017 43.4375 86.8125 C41.05310277 86.72996677 41.05310277 86.72996677 40 88 Z M79 87 C76.71271266 88.83883881 76.71271266 88.83883881 76.875 91.625 C76.91625 92.40875 76.9575 93.1925 77 94 C79.32854463 95.19838209 79.32854463 95.19838209 82 96 C82.99 95.34 83.98 94.68 85 94 C85.41666667 91.5 85.41666667 91.5 85 89 C84.34 88.34 83.68 87.68 83 87 C81.68 87 80.36 87 79 87 Z " fill="#1F3D78" transform="translate(153,135)"/>
<path d="M0 0 C3.3 0 6.6 0 10 0 C11.10557592 2.35351368 12.20948982 4.7077841 13.3125 7.0625 C13.7755957 8.04766602 13.7755957 8.04766602 14.24804688 9.05273438 C16.2518979 13.33464761 18.15957624 17.64527425 20 22 C20.45890625 21.0821875 20.9178125 20.164375 21.390625 19.21875 C24.59375 12.8125 27.796875 6.40625 31 0 C34.3 0 37.6 0 41 0 C41.85855347 5.19546627 42.71293592 10.39159484 43.56347656 15.58837891 C43.85334849 17.35581946 44.14435517 19.12307431 44.43652344 20.89013672 C44.85651014 23.43148482 45.27239872 25.97347494 45.6875 28.515625 C45.81874268 29.30430969 45.94998535 30.09299438 46.08520508 30.90557861 C46.64160347 34.33530266 47 37.51473609 47 41 C43.7 41 40.4 41 37 41 C36.4935186 38.29273634 35.994649 35.58442876 35.5 32.875 C35.35691406 32.11445313 35.21382813 31.35390625 35.06640625 30.5703125 C34.29687544 26.31957086 33.83355624 22.34140803 34 18 C33.34 18 32.68 18 32 18 C31.4740625 19.794375 31.4740625 19.794375 30.9375 21.625 C28.69896966 28.4166576 25.28640655 34.67029095 22 41 C20.68 41 19.36 41 18 41 C14.7 33.74 11.4 26.48 8 19 C7.525625 21.51625 7.05125 24.0325 6.5625 26.625 C6.41498291 27.40568848 6.26746582 28.18637695 6.11547852 28.99072266 C5.36421572 32.98697405 4.65210734 36.98605773 4 41 C0.7 41 -2.6 41 -6 41 C-5.40594361 32.40279252 -4.34447233 23.94762012 -3 15.4375 C-2.82210937 14.27669922 -2.64421875 13.11589844 -2.4609375 11.91992188 C-1.13493389 3.40480166 -1.13493389 3.40480166 0 0 Z " fill="#1F3D78" transform="translate(235,265)"/>
<path d="M0 0 C2.64510373 1.8064123 4.07161619 2.92516751 5.5625 5.75 C6.25 9.5 6.25 9.5 6.5625 12.75 C3.2625 12.75 -0.0375 12.75 -3.4375 12.75 C-3.7675 11.43 -4.0975 10.11 -4.4375 8.75 C-7.4075 8.75 -10.3775 8.75 -13.4375 8.75 C-13.1075 10.07 -12.7775 11.39 -12.4375 12.75 C-9.7879915 13.96213532 -7.31764256 14.92366705 -4.5625 15.8125 C-3.10417473 16.2956183 -1.64831738 16.78626477 -0.1953125 17.28515625 C0.4529248 17.495354 1.10116211 17.70555176 1.76904297 17.92211914 C3.88604687 18.89935304 5.07455772 19.96135 6.5625 21.75 C7.80533781 25.47851342 8.0905726 28.87746761 7.5625 32.75 C5.27747627 37.23541695 3.04195085 39.53886682 -1.4375 41.75 C-7.14510391 42.55195447 -13.3457335 42.80464649 -18.5625 40.0625 C-21.48365984 37.71287143 -23.03604413 36.21242038 -24.4375 32.75 C-24.625 29.4375 -24.625 29.4375 -24.4375 26.75 C-21.05986173 26.46483354 -17.80307385 26.28483939 -14.4375 26.75 C-12.6875 29.25 -12.6875 29.25 -11.4375 31.75 C-8.27760585 32.13692581 -6.29870256 32.18060128 -3.4375 30.75 C-3.4375 29.43 -3.4375 28.11 -3.4375 26.75 C-4.97470703 26.29560547 -4.97470703 26.29560547 -6.54296875 25.83203125 C-7.90390028 25.40967319 -9.26456353 24.98644997 -10.625 24.5625 C-11.29853516 24.36591797 -11.97207031 24.16933594 -12.66601562 23.96679688 C-17.37356106 22.47416052 -20.21050518 20.65283713 -23.4375 16.75 C-25.00177704 11.95288374 -24.32481943 8.38251132 -22.4375 3.75 C-16.4161829 -2.2713171 -7.82567138 -2.84569868 0 0 Z " fill="#1F3D78" transform="translate(169.4375,265.25)"/>
<path d="M0 0 C3.3 0 6.6 0 10 0 C10.01981934 0.79696289 10.03963867 1.59392578 10.06005859 2.41503906 C10.15533248 6.02702472 10.26500307 9.63843399 10.375 13.25 C10.4059375 14.50425781 10.436875 15.75851562 10.46875 17.05078125 C10.50742188 18.25605469 10.54609375 19.46132813 10.5859375 20.703125 C10.6173584 21.81333008 10.6487793 22.92353516 10.68115234 24.06738281 C10.99089737 26.9162781 11.43462483 28.6230776 13 31 C15.79870027 32.39935013 17.90498792 32.25265405 21 32 C22.79088743 30.95613821 22.79088743 30.95613821 24 29 C24.50768043 25.9031714 24.50768043 25.9031714 24.51171875 22.36328125 C24.54716797 21.06455078 24.58261719 19.76582031 24.61914062 18.42773438 C24.6422405 17.05599483 24.6650229 15.6842499 24.6875 14.3125 C24.72067542 12.92900393 24.75516531 11.54553871 24.79101562 10.16210938 C24.87363241 6.77482117 24.94274058 3.38779643 25 0 C28.3 0 31.6 0 35 0 C35.0995024 4.28663998 35.1717631 8.57265331 35.21972656 12.86010742 C35.23973822 14.31595584 35.26695677 15.77172494 35.30175781 17.22729492 C35.65309962 32.30915874 35.65309962 32.30915874 31 38 C25.80725019 42.21910922 21.42238231 42.56801994 14.80859375 42.3203125 C9.92050027 41.7628387 7.18239511 40.18239511 3.75 36.75 C-0.95181542 29.36143291 -0.24064012 21.544258 -0.125 13.0625 C-0.11597656 11.80630859 -0.10695313 10.55011719 -0.09765625 9.25585938 C-0.07419249 6.17037478 -0.04136201 3.08528795 0 0 Z " fill="#1F3D78" transform="translate(104,265)"/>
<path d="M0 0 C0 -0.66 0 -1.32 0 -2 C2.31 -2 4.62 -2 7 -2 C7 8.56 7 19.12 7 30 C3.7 30 0.4 30 -3 30 C-3.99 30.495 -3.99 30.495 -5 31 C-10.53042052 31.50502343 -15.41030524 31.73807257 -20.5 29.375 C-25.61614851 24.51465891 -27.68087717 20.45140834 -28.08984375 13.45703125 C-27.92171576 8.8590962 -26.52319535 5.62229481 -23.37890625 2.2734375 C-16.05636835 -4.37196249 -8.72573473 -4.27382926 0 0 Z M-17 9 C-18.42662219 11.85324437 -18.31033868 13.83454549 -18 17 C-16.59121904 19.9901643 -16.59121904 19.9901643 -14 22 C-9.55928174 22.80740332 -7.73209944 22.50331836 -4 19.9375 C-1.65998045 17.0928825 -1.65998045 17.0928825 -2 13.375 C-3.0696286 9.44214059 -3.0696286 9.44214059 -6 7 C-10.74689776 5.55529198 -13.07587134 5.97281503 -17 9 Z " fill="#1F3D78" transform="translate(313,276)"/>
<path d="M0 0 C3.3 0 6.6 0 10 0 C10.07451364 4.3049777 10.12877223 8.60960734 10.16479492 12.91503906 C10.17982196 14.37767075 10.20024955 15.84025782 10.22631836 17.30273438 C10.26297267 19.4128728 10.27978676 21.52241226 10.29296875 23.6328125 C10.3086792 24.90012207 10.32438965 26.16743164 10.34057617 27.47314453 C9.78305107 33.2466267 7.40477247 37.28347323 3 41 C-1.62835514 42.54278505 -6.1664845 42.50478774 -11 42 C-14.90863741 40.04568129 -17.98579156 37.92240591 -20 34 C-20.53250458 30.98769469 -20.7750174 28.05976338 -21 25 C-17.7 25 -14.4 25 -11 25 C-10.690625 25.969375 -10.38125 26.93875 -10.0625 27.9375 C-9.30476658 30.84065792 -9.30476658 30.84065792 -8 32 C-5.54190002 32.2500773 -5.54190002 32.2500773 -3 32 C-0.17120714 29.17120714 -0.6857334 27.20075802 -0.5859375 23.2421875 C-0.56657135 22.57913605 -0.5472052 21.91608459 -0.5272522 21.23294067 C-0.46744046 19.11375823 -0.42106612 16.9945215 -0.375 14.875 C-0.33682155 13.43877831 -0.29776989 12.00257955 -0.2578125 10.56640625 C-0.16173875 7.04448064 -0.07771358 3.52238392 0 0 Z " fill="#1F3D78" transform="translate(87,265)"/>
<path d="M0 0 C10.56 0 21.12 0 32 0 C32 2.97 32 5.94 32 9 C28.37 9 24.74 9 21 9 C21 19.56 21 30.12 21 41 C17.7 41 14.4 41 11 41 C11 30.44 11 19.88 11 9 C7.37 9 3.74 9 0 9 C0 6.03 0 3.06 0 0 Z " fill="#1F3D78" transform="translate(180,265)"/>
<path d="M0 0 C0 2.64 0 5.28 0 8 C2.64 8 5.28 8 8 8 C8 10.64 8 13.28 8 16 C5.36 16 2.72 16 0 16 C0.14026283 18.31284456 0.28735558 20.62527591 0.4375 22.9375 C0.51871094 24.22527344 0.59992188 25.51304687 0.68359375 26.83984375 C0.64919188 29.86023957 0.64919188 29.86023957 2 31 C4.32817964 31.36760731 6.6618385 31.70241581 9 32 C9 34.64 9 37.28 9 40 C-2.87032086 40.78208556 -2.87032086 40.78208556 -7.25 37.75 C-10.26253369 33.01601849 -10.13012876 28.75394071 -10.0625 23.25 C-10.05798828 22.55261719 -10.05347656 21.85523438 -10.04882812 21.13671875 C-10.0371002 19.42444197 -10.01916653 17.71220967 -10 16 C-11.65 16 -13.3 16 -15 16 C-14.61786321 11.02312317 -12.06618001 8.49191516 -8.625 5.1875 C-8.13 4.68541016 -7.635 4.18332031 -7.125 3.66601562 C-3.39414328 0 -3.39414328 0 0 0 Z " fill="#1F3D78" transform="translate(363,266)"/>
<path d="M0 0 C1.98 0 3.96 0 6 0 C6.66 0.66 7.32 1.32 8 2 C8.515625 1.67 9.03125 1.34 9.5625 1 C12.78026512 -0.32010877 15.5570528 -0.13242105 19 0 C19 2.97 19 5.94 19 9 C17.88625 9.103125 16.7725 9.20625 15.625 9.3125 C14.42875 9.539375 13.2325 9.76625 12 10 C9.94872156 13.07691766 9.72739128 13.93644999 9.5859375 17.44921875 C9.52792969 18.72055664 9.52792969 18.72055664 9.46875 20.01757812 C9.42234375 21.33918945 9.42234375 21.33918945 9.375 22.6875 C9.31699219 24.02651367 9.31699219 24.02651367 9.2578125 25.39257812 C9.16360349 27.59471378 9.08071506 29.79732847 9 32 C6.03 32 3.06 32 0 32 C0 21.44 0 10.88 0 0 Z " fill="#1F3D78" transform="translate(328,274)"/>
<path d="M0 0 C5.61 0 11.22 0 17 0 C17 5.61 17 11.22 17 17 C11.39 17 5.78 17 0 17 C0 11.39 0 5.78 0 0 Z " fill="#D1FEFF" transform="translate(225,125)"/>
<path d="M0 0 C5.61 0 11.22 0 17 0 C17 5.28 17 10.56 17 16 C11.39 16 5.78 16 0 16 C0 10.72 0 5.44 0 0 Z " fill="#1F3D78" transform="translate(266,98)"/>
<path d="M0 0 C4.95 0 9.9 0 15 0 C15 4.95 15 9.9 15 15 C10.05 15 5.1 15 0 15 C0 10.05 0 5.1 0 0 Z " fill="#D1FEFF" transform="translate(271,125)"/>
<path d="M0 0 C4.29 0 8.58 0 13 0 C13.09765625 8.49609375 13.09765625 8.49609375 13 11 C12 12 12 12 9.27734375 12.09765625 C6.18489583 12.06510417 3.09244792 12.03255208 0 12 C0 8.04 0 4.08 0 0 Z " fill="#1F3D78" transform="translate(247,115)"/>
<path d="M0 0 C2 2.1875 2 2.1875 3 5 C2.5 7.75 2.5 7.75 1 10 C-1.7754479 11.09557154 -3.36492629 11.15876843 -6.25 10.4375 C-8 9 -8 9 -8.9375 6.0625 C-9 3 -9 3 -7.9375 1.125 C-5.07852148 -0.53505204 -3.23929188 -0.53988198 0 0 Z M-5 2 C-5.66 3.32 -6.32 4.64 -7 6 C-6.01 6.99 -5.02 7.98 -4 9 C-2.68 8.34 -1.36 7.68 0 7 C-0.33 5.35 -0.66 3.7 -1 2 C-2.32 2 -3.64 2 -5 2 Z " fill="#1F3D78" transform="translate(192,325)"/>
<path d="M0 0 C0.99 0 1.98 0 3 0 C4.6875 2 4.6875 2 6 4 C6.33 2.68 6.66 1.36 7 0 C7.66 0 8.32 0 9 0 C9 3.3 9 6.6 9 10 C5 8 5 8 3 5 C2.67 6.65 2.34 8.3 2 10 C1.34 10 0.68 10 0 10 C0 6.7 0 3.4 0 0 Z " fill="#1F3D78" transform="translate(265,325)"/>
<path d="M0 0 C6.15234375 -0.09765625 6.15234375 -0.09765625 8 0 C9 1 9 1 9.125 3.5 C9 6 9 6 8 7 C6.00041636 7.04080783 3.99954746 7.04254356 2 7 C2 7.99 2 8.98 2 10 C1.34 10 0.68 10 0 10 C0 6.7 0 3.4 0 0 Z M2 2 C2 2.99 2 3.98 2 5 C3.65 5 5.3 5 7 5 C6.67 4.01 6.34 3.02 6 2 C4.68 2 3.36 2 2 2 Z " fill="#1F3D78" transform="translate(228,325)"/>
<path d="M0 0 C3.375 -0.125 3.375 -0.125 7 0 C7.66 0.66 8.32 1.32 9 2 C8.625 4.625 8.625 4.625 8 7 C6.02 7 4.04 7 2 7 C2 7.99 2 8.98 2 10 C1.34 10 0.68 10 0 10 C0 6.7 0 3.4 0 0 Z M2 2 C2 2.99 2 3.98 2 5 C3.65 4.67 5.3 4.34 7 4 C6.67 3.34 6.34 2.68 6 2 C4.68 2 3.36 2 2 2 Z " fill="#1F3D78" transform="translate(207,325)"/>
<path d="M0 0 C1.670625 0.061875 1.670625 0.061875 3.375 0.125 C3.045 1.115 2.715 2.105 2.375 3.125 C0.725 3.125 -0.925 3.125 -2.625 3.125 C-2.625 4.445 -2.625 5.765 -2.625 7.125 C-0.975 7.455 0.675 7.785 2.375 8.125 C2.705 7.135 3.035 6.145 3.375 5.125 C3.375 6.775 3.375 8.425 3.375 10.125 C0.39711118 11.03491047 -1.05997994 11.38460381 -3.9375 10.0625 C-5.625 8.125 -5.625 8.125 -6 5.0625 C-5.42756768 0.57844681 -4.48805053 0.15476036 0 0 Z " fill="#1F3D78" transform="translate(292.625,324.875)"/>
<path d="M0 0 C0.66 0 1.32 0 2 0 C2 1.32 2 2.64 2 4 C3.65 4 5.3 4 7 4 C7 2.68 7 1.36 7 0 C7.66 0 8.32 0 9 0 C9 3.3 9 6.6 9 10 C8.34 10 7.68 10 7 10 C7 8.68 7 7.36 7 6 C5.35 6 3.7 6 2 6 C2 7.32 2 8.64 2 10 C1.34 10 0.68 10 0 10 C0 6.7 0 3.4 0 0 Z " fill="#1F3D78" transform="translate(162,325)"/>
<path d="M0 0 C1.98 0 3.96 0 6 0 C6 0.66 6 1.32 6 2 C4.68 2.33 3.36 2.66 2 3 C3.65 3.99 5.3 4.98 7 6 C6.67 7.32 6.34 8.64 6 10 C2.98968256 10.93423645 2.13349732 11.04449911 -1 10 C-1 9.34 -1 8.68 -1 8 C0.65 8 2.3 8 4 8 C1.22739701 6.06201737 1.22739701 6.06201737 -1 5 C-0.67 3.35 -0.34 1.7 0 0 Z " fill="#1F3D78" transform="translate(142,325)"/>
<path d="M0 0 C0.66 0 1.32 0 2 0 C2 3.3 2 6.6 2 10 C1.34 10 0.68 10 0 10 C0 6.7 0 3.4 0 0 Z " fill="#1F3D78" transform="translate(250,325)"/>
</svg>
