<svg width="17" height="16" viewBox="0 0 17 16" fill="none" xmlns="http://www.w3.org/2000/svg">
<path d="M8.5 12.5C8.22667 12.5 8 12.2733 8 12V10C8 9.72667 8.22667 9.5 8.5 9.5C8.77333 9.5 9 9.72667 9 10V12C9 12.2733 8.77333 12.5 8.5 12.5Z" fill="#4E5556"/>
<path d="M12.2333 15.04H4.76667C3.55334 15.04 2.44667 14.1066 2.24667 12.9133L1.36 7.59996C1.21334 6.7733 1.62 5.7133 2.28 5.18663L6.9 1.48663C7.79334 0.766629 9.2 0.773296 10.1 1.4933L14.72 5.18663C15.3733 5.7133 15.7733 6.7733 15.64 7.59996L14.7533 12.9066C14.5533 14.0866 13.42 15.04 12.2333 15.04ZM8.49334 1.9533C8.14 1.9533 7.78667 2.05996 7.52667 2.26663L2.90667 5.9733C2.53334 6.2733 2.26667 6.96663 2.34667 7.43996L3.23334 12.7466C3.35334 13.4466 4.05334 14.04 4.76667 14.04H12.2333C12.9467 14.04 13.6467 13.4466 13.7667 12.74L14.6533 7.4333C14.7267 6.96663 14.46 6.25996 14.0933 5.96663L9.47334 2.2733C9.20667 2.05996 8.84667 1.9533 8.49334 1.9533Z" fill="#4E5556"/>
</svg>
