<svg width="16" height="16" viewBox="0 0 16 16" fill="none" xmlns="http://www.w3.org/2000/svg">
<path d="M13.18 7.50001H10.4867C9.14667 7.50001 8.5 6.90668 8.5 5.68001V2.65334C8.5 1.42668 9.15333 0.833344 10.4867 0.833344H13.18C14.52 0.833344 15.1667 1.42668 15.1667 2.65334V5.67334C15.1667 6.90668 14.5133 7.50001 13.18 7.50001ZM10.4867 1.83334C9.59333 1.83334 9.5 2.08668 9.5 2.65334V5.67334C9.5 6.24668 9.59333 6.49334 10.4867 6.49334H13.18C14.0733 6.49334 14.1667 6.24001 14.1667 5.67334V2.65334C14.1667 2.08001 14.0733 1.83334 13.18 1.83334H10.4867Z" fill="#4E5556"/>
<path d="M13.18 15.1667H10.4867C9.14667 15.1667 8.5 14.5133 8.5 13.18V10.4867C8.5 9.14667 9.15333 8.5 10.4867 8.5H13.18C14.52 8.5 15.1667 9.15333 15.1667 10.4867V13.18C15.1667 14.5133 14.5133 15.1667 13.18 15.1667ZM10.4867 9.5C9.7 9.5 9.5 9.7 9.5 10.4867V13.18C9.5 13.9667 9.7 14.1667 10.4867 14.1667H13.18C13.9667 14.1667 14.1667 13.9667 14.1667 13.18V10.4867C14.1667 9.7 13.9667 9.5 13.18 9.5H10.4867Z" fill="#4E5556"/>
<path d="M5.51334 7.50001H2.82001C1.48001 7.50001 0.833344 6.90668 0.833344 5.68001V2.65334C0.833344 1.42668 1.48668 0.833344 2.82001 0.833344H5.51334C6.85334 0.833344 7.50001 1.42668 7.50001 2.65334V5.67334C7.50001 6.90668 6.84668 7.50001 5.51334 7.50001ZM2.82001 1.83334C1.92668 1.83334 1.83334 2.08668 1.83334 2.65334V5.67334C1.83334 6.24668 1.92668 6.49334 2.82001 6.49334H5.51334C6.40668 6.49334 6.50001 6.24001 6.50001 5.67334V2.65334C6.50001 2.08001 6.40668 1.83334 5.51334 1.83334H2.82001Z" fill="#4E5556"/>
<path d="M5.51334 15.1667H2.82001C1.48001 15.1667 0.833344 14.5133 0.833344 13.18V10.4867C0.833344 9.14667 1.48668 8.5 2.82001 8.5H5.51334C6.85334 8.5 7.50001 9.15333 7.50001 10.4867V13.18C7.50001 14.5133 6.84668 15.1667 5.51334 15.1667ZM2.82001 9.5C2.03334 9.5 1.83334 9.7 1.83334 10.4867V13.18C1.83334 13.9667 2.03334 14.1667 2.82001 14.1667H5.51334C6.30001 14.1667 6.50001 13.9667 6.50001 13.18V10.4867C6.50001 9.7 6.30001 9.5 5.51334 9.5H2.82001Z" fill="#4E5556"/>
</svg>
