<svg width="16" height="16" viewBox="0 0 16 16" fill="none" xmlns="http://www.w3.org/2000/svg">
<path d="M12.1266 11.8333H5.02664C4.36664 11.8333 3.73331 11.5533 3.28664 11.0667C2.83997 10.58 2.61331 9.92667 2.66665 9.26667L3.21998 2.62668C3.23998 2.42001 3.16664 2.22001 3.02664 2.06668C2.88664 1.91335 2.69331 1.83334 2.48664 1.83334H1.33331C1.05998 1.83334 0.833313 1.60668 0.833313 1.33334C0.833313 1.06001 1.05998 0.833344 1.33331 0.833344H2.49332C2.97998 0.833344 3.43998 1.04001 3.76664 1.39334C3.94664 1.59334 4.07998 1.82668 4.15331 2.08668H12.48C13.1533 2.08668 13.7733 2.35334 14.2266 2.83334C14.6733 3.32001 14.9 3.95335 14.8466 4.62668L14.4866 9.62668C14.4133 10.8467 13.3466 11.8333 12.1266 11.8333ZM4.18665 3.08001L3.66665 9.34667C3.63331 9.73334 3.75998 10.1 4.01998 10.3867C4.27998 10.6733 4.63998 10.8267 5.02664 10.8267H12.1266C12.82 10.8267 13.4466 10.24 13.5 9.54668L13.86 4.54668C13.8866 4.15335 13.76 3.78002 13.5 3.50668C13.24 3.22668 12.88 3.07333 12.4866 3.07333H4.18665V3.08001Z" fill="#4E5556"/>
<path d="M10.8333 15.1667C10.1 15.1667 9.5 14.5667 9.5 13.8333C9.5 13.1 10.1 12.5 10.8333 12.5C11.5667 12.5 12.1667 13.1 12.1667 13.8333C12.1667 14.5667 11.5667 15.1667 10.8333 15.1667ZM10.8333 13.5C10.6467 13.5 10.5 13.6467 10.5 13.8333C10.5 14.02 10.6467 14.1667 10.8333 14.1667C11.02 14.1667 11.1667 14.02 11.1667 13.8333C11.1667 13.6467 11.02 13.5 10.8333 13.5Z" fill="#4E5556"/>
<path d="M5.50002 15.1667C4.76669 15.1667 4.16669 14.5667 4.16669 13.8333C4.16669 13.1 4.76669 12.5 5.50002 12.5C6.23335 12.5 6.83335 13.1 6.83335 13.8333C6.83335 14.5667 6.23335 15.1667 5.50002 15.1667ZM5.50002 13.5C5.31335 13.5 5.16669 13.6467 5.16669 13.8333C5.16669 14.02 5.31335 14.1667 5.50002 14.1667C5.68669 14.1667 5.83335 14.02 5.83335 13.8333C5.83335 13.6467 5.68669 13.5 5.50002 13.5Z" fill="#4E5556"/>
<path d="M14 5.83334H6C5.72667 5.83334 5.5 5.60668 5.5 5.33334C5.5 5.06001 5.72667 4.83334 6 4.83334H14C14.2733 4.83334 14.5 5.06001 14.5 5.33334C14.5 5.60668 14.2733 5.83334 14 5.83334Z" fill="#4E5556"/>
</svg>
