<svg width="22" height="22" viewBox="0 0 22 22" fill="none" xmlns="http://www.w3.org/2000/svg">
<g filter="url(#filter0_d_300_775)">
<path d="M16.8867 4.33999L12.52 0.846659C11.6667 0.166659 10.3333 0.159992 9.48665 0.839992L5.11999 4.33999C4.49332 4.83999 4.11332 5.83999 4.24665 6.62666L5.08665 11.6533C5.27999 12.78 6.32665 13.6667 7.46665 13.6667H14.5333C15.66 13.6667 16.7267 12.76 16.92 11.6467L17.76 6.61999C17.88 5.83999 17.5 4.83999 16.8867 4.33999ZM11.5 11C11.5 11.2733 11.2733 11.5 11 11.5C10.7267 11.5 10.5 11.2733 10.5 11V8.99999C10.5 8.72666 10.7267 8.49999 11 8.49999C11.2733 8.49999 11.5 8.72666 11.5 8.99999V11Z" fill="white"/>
</g>
<defs>
<filter id="filter0_d_300_775" x="0.220062" y="0.333313" width="21.562" height="21.3333" filterUnits="userSpaceOnUse" color-interpolation-filters="sRGB">
<feFlood flood-opacity="0" result="BackgroundImageFix"/>
<feColorMatrix in="SourceAlpha" type="matrix" values="0 0 0 0 0 0 0 0 0 0 0 0 0 0 0 0 0 0 127 0" result="hardAlpha"/>
<feOffset dy="4"/>
<feGaussianBlur stdDeviation="2"/>
<feComposite in2="hardAlpha" operator="out"/>
<feColorMatrix type="matrix" values="0 0 0 0 0 0 0 0 0 0 0 0 0 0 0 0 0 0 0.25 0"/>
<feBlend mode="normal" in2="BackgroundImageFix" result="effect1_dropShadow_300_775"/>
<feBlend mode="normal" in="SourceGraphic" in2="effect1_dropShadow_300_775" result="shape"/>
</filter>
</defs>
</svg>
